<svg xmlns="http://www.w3.org/2000/svg" id="Layer_1" data-name="Layer 1" viewBox="0 0 24 24"><defs><style>.cls-1,.cls-8{fill:#fff}.cls-2{fill:#4a4a4a}.cls-3{font-size:3px;fill:#4d4d4d;font-family:MyriadPro-Regular,Myriad Pro}.cls-4{letter-spacing:.01em}.cls-5{letter-spacing:0}.cls-6{letter-spacing:-.05em}.cls-7{letter-spacing:-.08em}.cls-8{stroke:#4a4a4a;stroke-miterlimit:10;stroke-width:.25px}</style></defs><title>CalendarDateInterval</title><rect width="23.5" height="11.5" x=".25" y="5.25" class="cls-1" rx=".61" ry=".61"/><path d="M23.14,5.5a.36.36,0,0,1,.36.36V16.14a.36.36,0,0,1-.36.36H.86a.36.36,0,0,1-.36-.36V5.86A.36.36,0,0,1,.86,5.5H23.14m0-.5H.86A.86.86,0,0,0,0,5.86V16.14A.86.86,0,0,0,.86,17H23.14a.86.86,0,0,0,.86-.86V5.86A.86.86,0,0,0,23.14,5Z" class="cls-2"/><rect width="2.75" height="3.75" x="7.63" y="11.13" class="cls-1" rx=".38" ry=".38"/><path d="M10,11.25a.25.25,0,0,1,.25.25v3a.25.25,0,0,1-.25.25H8a.25.25,0,0,1-.25-.25v-3A.25.25,0,0,1,8,11.25h2M10,11H8a.5.5,0,0,0-.5.5v3A.5.5,0,0,0,8,15h2a.5.5,0,0,0,.5-.5v-3A.5.5,0,0,0,10,11Z" class="cls-2"/><rect width="2.75" height="3.75" x="10.63" y="11.13" class="cls-1" rx=".38" ry=".38"/><path d="M13,11.25a.25.25,0,0,1,.25.25v3a.25.25,0,0,1-.25.25H11a.25.25,0,0,1-.25-.25v-3a.25.25,0,0,1,.25-.25h2M13,11H11a.5.5,0,0,0-.5.5v3a.5.5,0,0,0,.5.5h2a.5.5,0,0,0,.5-.5v-3A.5.5,0,0,0,13,11Z" class="cls-2"/><rect width="2.75" height="3.75" x="13.63" y="11.13" class="cls-1" rx=".38" ry=".38"/><path d="M16,11.25a.25.25,0,0,1,.25.25v3a.25.25,0,0,1-.25.25H14a.25.25,0,0,1-.25-.25v-3a.25.25,0,0,1,.25-.25h2M16,11H14a.5.5,0,0,0-.5.5v3a.5.5,0,0,0,.5.5h2a.5.5,0,0,0,.5-.5v-3A.5.5,0,0,0,16,11Z" class="cls-2"/><rect width="2.75" height="3.75" x="16.63" y="11.13" class="cls-1" rx=".38" ry=".38"/><path d="M19,11.25a.25.25,0,0,1,.25.25v3a.25.25,0,0,1-.25.25H17a.25.25,0,0,1-.25-.25v-3a.25.25,0,0,1,.25-.25h2M19,11H17a.5.5,0,0,0-.5.5v3a.5.5,0,0,0,.5.5h2a.5.5,0,0,0,.5-.5v-3A.5.5,0,0,0,19,11Z" class="cls-2"/><rect width="2.75" height="3.75" x="19.63" y="11.13" class="cls-1" rx=".38" ry=".38"/><path d="M22,11.25a.25.25,0,0,1,.25.25v3a.25.25,0,0,1-.25.25H20a.25.25,0,0,1-.25-.25v-3a.25.25,0,0,1,.25-.25h2M22,11H20a.5.5,0,0,0-.5.5v3a.5.5,0,0,0,.5.5h2a.5.5,0,0,0,.5-.5v-3A.5.5,0,0,0,22,11Z" class="cls-2"/><rect width="2.5" height="3.5" x="4.75" y="11.25" class="cls-1" rx=".25" ry=".25"/><path d="M7,11.5v3H5v-3H7M7,11H5a.5.5,0,0,0-.5.5v3A.5.5,0,0,0,5,15H7a.5.5,0,0,0,.5-.5v-3A.5.5,0,0,0,7,11Z" class="cls-2"/><rect width="2.75" height="3.75" x="1.63" y="11.13" class="cls-1" rx=".38" ry=".38"/><path d="M4,11.25a.25.25,0,0,1,.25.25v3a.25.25,0,0,1-.25.25H2a.25.25,0,0,1-.25-.25v-3A.25.25,0,0,1,2,11.25H4M4,11H2a.5.5,0,0,0-.5.5v3A.5.5,0,0,0,2,15H4a.5.5,0,0,0,.5-.5v-3A.5.5,0,0,0,4,11Z" class="cls-2"/><text class="cls-3" transform="translate(2 8.83)"><tspan x="1.27" y="0" class="cls-4">M</tspan><tspan x="3.7" y="0">o</tspan><tspan x="5.35" y="0" class="cls-5">n</tspan><tspan x="7" y="0" xml:space="preserve">th </tspan><tspan x="12.2" y="0" class="cls-6"> </tspan><tspan x="12.7" y="0" class="cls-7">Y</tspan><tspan x="14.1" y="0">ear</tspan></text><line x1="2.26" x2="1.62" y1="7.35" y2="8" class="cls-8"/><line x1="2.26" x2="1.54" y1="8.65" y2="7.92" class="cls-8"/><line x1="21.54" x2="22.18" y1="8.65" y2="8" class="cls-8"/><line x1="21.54" x2="22.26" y1="7.35" y2="8.08" class="cls-8"/></svg>