<svg xmlns="http://www.w3.org/2000/svg" id="Layer_1" data-name="Layer 1" viewBox="0 0 24 24"><defs><style>.cls-1{fill:none;stroke:#4a4a4a;stroke-miterlimit:10;stroke-width:.25px}.cls-2{fill:#fff}.cls-3{fill:#4a4a4a}</style></defs><title>BusyDialog</title><line x1="1.5" x2="22.5" y1="2.5" y2="2.5" class="cls-1"/><line x1="20.36" x2="22.5" y1="8.5" y2="8.5" class="cls-1"/><line x1="1.5" x2="3.63" y1="8.5" y2="8.5" class="cls-1"/><line x1="1.5" x2="22.5" y1="4.5" y2="4.5" class="cls-1"/><line x1="1.5" x2="22.5" y1="3.5" y2="3.5" class="cls-1"/><rect width="15.5" height="8.5" x="4.25" y="8.25" class="cls-2" rx=".61" ry=".61"/><path d="M19.14,8.5a.36.36,0,0,1,.36.36v7.28a.36.36,0,0,1-.36.36H4.86a.36.36,0,0,1-.36-.36V8.86a.36.36,0,0,1,.36-.36H19.14m0-.5H4.86A.86.86,0,0,0,4,8.86v7.28a.86.86,0,0,0,.86.86H19.14a.86.86,0,0,0,.86-.86V8.86A.86.86,0,0,0,19.14,8Z" class="cls-3"/><line x1="22.51" x2="1.51" y1="21.48" y2="21.52" class="cls-1"/><line x1="22.5" x2="1.5" y1="19.48" y2="19.52" class="cls-1"/><line x1="22.5" x2="1.5" y1="20.48" y2="20.52" class="cls-1"/><line x1="19" x2="22.5" y1="7.5" y2="7.5" class="cls-1"/><line x1="1.5" x2="19" y1="7.5" y2="7.5" class="cls-1"/><line x1="19" x2="22.5" y1="6.5" y2="6.5" class="cls-1"/><line x1="1.5" x2="19" y1="6.5" y2="6.5" class="cls-1"/><line x1="19" x2="22.5" y1="17.5" y2="17.5" class="cls-1"/><line x1="1.5" x2="19" y1="17.5" y2="17.5" class="cls-1"/><line x1="22.44" x2="1.49" y1="18.52" y2="18.52" class="cls-1"/><line x1="19" x2="22.5" y1="22.5" y2="22.5" class="cls-1"/><line x1="1.5" x2="19" y1="22.5" y2="22.5" class="cls-1"/><line x1="19" x2="22.5" y1="5.5" y2="5.5" class="cls-1"/><line x1="1.5" x2="19" y1="5.5" y2="5.5" class="cls-1"/><line x1="22.44" x2="1.49" y1="1.52" y2="1.52" class="cls-1"/><line x1="20.36" x2="22.5" y1="11.5" y2="11.5" class="cls-1"/><line x1="1.5" x2="3.63" y1="11.5" y2="11.5" class="cls-1"/><line x1="20.36" x2="22.5" y1="15.5" y2="15.5" class="cls-1"/><line x1="1.5" x2="3.63" y1="15.5" y2="15.5" class="cls-1"/><line x1="20.36" x2="22.5" y1="14.5" y2="14.5" class="cls-1"/><line x1="1.5" x2="3.63" y1="14.5" y2="14.5" class="cls-1"/><line x1="20.36" x2="22.5" y1="13.5" y2="13.5" class="cls-1"/><line x1="1.5" x2="3.63" y1="13.5" y2="13.5" class="cls-1"/><line x1="20.36" x2="22.5" y1="12.5" y2="12.5" class="cls-1"/><line x1="1.5" x2="3.63" y1="12.5" y2="12.5" class="cls-1"/><line x1="20.36" x2="22.5" y1="10.5" y2="10.5" class="cls-1"/><line x1="1.5" x2="3.63" y1="10.5" y2="10.5" class="cls-1"/><line x1="20.36" x2="22.5" y1="9.5" y2="9.5" class="cls-1"/><line x1="1.5" x2="3.63" y1="9.5" y2="9.5" class="cls-1"/><line x1="20.36" x2="22.5" y1="16.5" y2="16.5" class="cls-1"/><line x1="1.5" x2="3.63" y1="16.5" y2="16.5" class="cls-1"/><circle cx="8.75" cy="13.25" r=".5" class="cls-2"/><path d="M8.75,13a.25.25,0,1,1-.25.25A.25.25,0,0,1,8.75,13m0-.5a.75.75,0,1,0,.75.75.75.75,0,0,0-.75-.75Z" class="cls-3"/><circle cx="11.38" cy="12.88" r=".8" class="cls-2"/><path d="M11.38,12.4a.48.48,0,1,1-.48.48.48.48,0,0,1,.48-.48m0-.65a1.13,1.13,0,1,0,1.13,1.13,1.13,1.13,0,0,0-1.12-1.12Z" class="cls-3"/><circle cx="14.75" cy="12.5" r="1.13" class="cls-2"/><path d="M14.75,11.75a.75.75,0,1,1-.75.75.75.75,0,0,1,.75-.75m0-.75a1.5,1.5,0,1,0,1.5,1.5,1.5,1.5,0,0,0-1.5-1.5Z" class="cls-3"/></svg>