<svg xmlns="http://www.w3.org/2000/svg" id="Layer_1" data-name="Layer 1" viewBox="0 0 24 24"><defs><style>.cls-1{fill:#fff}.cls-2{fill:#4a4a4a}.cls-3{fill:none;stroke:#4a4a4a;stroke-miterlimit:10;stroke-width:.5px}</style></defs><title>FlexBox</title><polygon points=".26 23.75 .25 .26 23.74 .25 23.75 23.74 23.74 23.75 .26 23.75" class="cls-1"/><path d="M23.5.5v23H.5V.5h23m.24-.5H.26A.26.26,0,0,0,0,.26V23.74A.26.26,0,0,0,.26,24H23.74a.26.26,0,0,0,.26-.26V.26A.26.26,0,0,0,23.74,0Z" class="cls-2"/><line x1="6.5" x2="6.5" y1="23.5" y2=".5" class="cls-3"/><line x1="15.5" x2="15.5" y1=".5" y2="13.5" class="cls-3"/><line x1="24" x2="6.5" y1="13.5" y2="13.5" class="cls-3"/></svg>