<svg xmlns="http://www.w3.org/2000/svg" xmlns:xlink="http://www.w3.org/1999/xlink" width="24" height="24" x="0" y="0" enable-background="new 0 0 24 24" version="1.1" viewBox="0 0 24 24" xml:space="preserve"><g id="Icons"><g><defs><rect id="SVGID_75_" width="24" height="24" x=".005"/></defs><clipPath id="SVGID_2_"><use overflow="visible" xlink:href="#SVGID_75_"/></clipPath><g clip-path="url(#SVGID_2_)"><path fill="#4A4A4A" d="M22.5,0h-21C0.673,0,0,0.673,0,1.5v21C0,23.327,0.673,24,1.5,24h21c0.827,0,1.5-0.673,1.5-1.5v-21 C24,0.673,23.327,0,22.5,0z M23,22.5c0,0.275-0.224,0.5-0.5,0.5h-21C1.224,23,1,22.775,1,22.5v-21C1,1.225,1.224,1,1.5,1h21 C22.776,1,23,1.225,23,1.5V22.5z"/><g><path fill="#4A4A4A" d="M12.005,19.998c-0.552,0-1-0.447-1-1v-14c0-0.552,0.448-1,1-1s1,0.448,1,1v14 C13.005,19.551,12.557,19.998,12.005,19.998z"/></g></g></g></g></svg>