<svg xmlns="http://www.w3.org/2000/svg" id="Layer_1" data-name="Layer 1" viewBox="0 0 24 24"><defs><style>.cls-1{fill:none;stroke:#4a4a4a;stroke-miterlimit:10;stroke-width:.25px}.cls-2{fill:#fff}.cls-3{fill:#4a4a4a}</style></defs><title>LightBox</title><line x1="1.5" x2="22.5" y1="2.5" y2="2.5" class="cls-1"/><line x1="19" x2="22.5" y1="8.5" y2="8.5" class="cls-1"/><line x1="1.5" x2="5" y1="8.5" y2="8.5" class="cls-1"/><line x1="1.5" x2="22.5" y1="4.5" y2="4.5" class="cls-1"/><line x1="1.5" x2="22.5" y1="3.5" y2="3.5" class="cls-1"/><rect width="11.5" height="11.5" x="6.25" y="6.25" class="cls-2" rx=".61" ry=".61"/><path d="M17.14,6.5a.36.36,0,0,1,.36.36V17.14a.36.36,0,0,1-.36.36H6.86a.36.36,0,0,1-.36-.36V6.86a.36.36,0,0,1,.36-.36H17.14m0-.5H6.86A.86.86,0,0,0,6,6.86V17.14a.86.86,0,0,0,.86.86H17.14a.86.86,0,0,0,.86-.86V6.86A.86.86,0,0,0,17.14,6Z" class="cls-3"/><line x1="19" x2="22.5" y1="14.5" y2="14.5" class="cls-1"/><line x1="1.5" x2="4.9" y1="14.5" y2="14.5" class="cls-1"/><line x1="19" x2="22.5" y1="13.5" y2="13.5" class="cls-1"/><line x1="1.5" x2="4.9" y1="13.5" y2="13.5" class="cls-1"/><line x1="19" x2="22.5" y1="12.5" y2="12.5" class="cls-1"/><line x1="1.5" x2="4.9" y1="12.5" y2="12.5" class="cls-1"/><line x1="19" x2="22.5" y1="11.5" y2="11.5" class="cls-1"/><line x1="1.5" x2="4.9" y1="11.5" y2="11.5" class="cls-1"/><line x1="19" x2="22.5" y1="10.5" y2="10.5" class="cls-1"/><line x1="1.5" x2="4.9" y1="10.5" y2="10.5" class="cls-1"/><line x1="19" x2="22.5" y1="9.5" y2="9.5" class="cls-1"/><line x1="1.5" x2="4.9" y1="9.5" y2="9.5" class="cls-1"/><line x1="22.51" x2="1.51" y1="21.48" y2="21.52" class="cls-1"/><line x1="5" x2="1.49" y1="15.52" y2="15.52" class="cls-1"/><line x1="22.49" x2="19.1" y1="15.48" y2="15.48" class="cls-1"/><line x1="22.5" x2="1.5" y1="19.48" y2="19.52" class="cls-1"/><line x1="22.5" x2="1.5" y1="20.48" y2="20.52" class="cls-1"/><line x1="19" x2="22.5" y1="7.5" y2="7.5" class="cls-1"/><line x1="1.5" x2="4.9" y1="7.5" y2="7.5" class="cls-1"/><line x1="19" x2="22.5" y1="6.5" y2="6.5" class="cls-1"/><line x1="1.5" x2="4.9" y1="6.5" y2="6.5" class="cls-1"/><line x1="19" x2="22.5" y1="17.5" y2="17.5" class="cls-1"/><line x1="1.5" x2="4.9" y1="17.5" y2="17.5" class="cls-1"/><line x1="19" x2="22.5" y1="16.5" y2="16.5" class="cls-1"/><line x1="1.5" x2="4.9" y1="16.5" y2="16.5" class="cls-1"/><line x1="19" x2="22.5" y1="22.5" y2="22.5" class="cls-1"/><line x1="1.5" x2="19" y1="22.5" y2="22.5" class="cls-1"/><line x1="4" x2="22.5" y1="5.5" y2="5.5" class="cls-1"/><line x1="1.5" x2="4.9" y1="5.5" y2="5.5" class="cls-1"/><line x1="22.44" x2="1.49" y1="1.52" y2="1.52" class="cls-1"/><line x1="4" x2="22.5" y1="18.5" y2="18.5" class="cls-1"/><line x1="1.5" x2="4.9" y1="18.5" y2="18.5" class="cls-1"/></svg>