<svg xmlns="http://www.w3.org/2000/svg" xmlns:xlink="http://www.w3.org/1999/xlink" width="24" height="24" x="0" y="0" enable-background="new 0 0 24 24" version="1.1" viewBox="0 0 24 24" xml:space="preserve"><g id="Icons"><g><defs><rect id="SVGID_111_" width="24" height="24"/></defs><clipPath id="SVGID_2_"><use overflow="visible" xlink:href="#SVGID_111_"/></clipPath><g clip-path="url(#SVGID_2_)"><circle cx="1.5" cy="3.5" r="1.5" fill="#4A4A4A"/><path fill="#4A4A4A" d="M7.5,4h16C23.776,4,24,3.776,24,3.5S23.776,3,23.5,3h-16C7.224,3,7,3.224,7,3.5S7.224,4,7.5,4z"/><path fill="#4A4A4A" d="M23.5,19h-16C7.224,19,7,19.224,7,19.5C7,19.776,7.224,20,7.5,20h16c0.276,0,0.5-0.224,0.5-0.5 C24,19.224,23.776,19,23.5,19z"/><path fill="#4A4A4A" d="M23.5,11h-16C7.224,11,7,11.224,7,11.5C7,11.776,7.224,12,7.5,12h16c0.276,0,0.5-0.224,0.5-0.5 C24,11.224,23.776,11,23.5,11z"/><circle cx="1.5" cy="19.5" r="1.5" fill="#4A4A4A"/><circle cx="1.5" cy="11.5" r="1.5" fill="#4A4A4A"/></g></g></g></svg>