<svg xmlns="http://www.w3.org/2000/svg" width="24" height="24" viewBox="0 0 24 24"><title>ico_msg_strip_24</title><path fill="#666" d="M23.5,7H.5a.5.5,0,0,0-.5.5v8a.5.5,0,0,0,.5.5h23a.5.5,0,0,0,.5-.5v-8A.5.5,0,0,0,23.5,7ZM23,15H1V8H23Z"/><path fill="#666" d="M2.5,14h4a.5.5,0,0,0,.5-.5V9.5A.5.5,0,0,0,6.5,9h-4a.5.5,0,0,0-.5.5V13.5A.5.5,0,0,0,2.5,14ZM3,10H6V13H3Z"/><circle cx="4.503" cy="11.501" r=".5" fill="#666"/><path fill="#666" d="M8.5,12h9a.5.5,0,0,0,0-1h-9a.5.5,0,0,0,0,1Z"/><path fill="#666" d="M19.146,12.854a.5.5,0,0,0,.707,0l.646-.647.645.645a.5.5,0,0,0,.707-.707L21.2,11.5l.642-.643a.5.5,0,1,0-.707-.706l-.642.643-.642-.642a.5.5,0,0,0-.707.707l.642.642-.646.647A.5.5,0,0,0,19.146,12.854Z"/></svg>