<svg xmlns="http://www.w3.org/2000/svg" width="24" height="24" viewBox="0 0 24 24"><title>ico_action_button_24</title><path fill="#666667" d="M17.8,5.509l.354.353a.5.5,0,0,0,.707,0l.354-.353,1.646-1.647a.5.5,0,1,0-.707-.707L18.5,4.8,16.858,3.156a.5.5,0,1,0-.707.707Z"/><path fill="#666667" d="M22,.009H2a1,1,0,0,0-1,1v7a1,1,0,0,0,1,1H22a1,1,0,0,0,1-1v-7A1,1,0,0,0,22,.009Zm-8,8H2v-7H14Zm8,0H15v-7h7Z"/><path fill="#666667" d="M13,2.009H3v5H13Zm-1,4H4v-3h8Z"/><rect width="2" height="2" x="3.999" y="13.008" fill="#666667" rx=".5" ry=".5"/><path fill="#666667" d="M19.5,13H8.505a.5.5,0,1,0,0,1H19.5a.5.5,0,0,0,0-1Z"/><path fill="#666667" d="M8.513,17.006h5a.5.5,0,0,0,0-1h-5a.5.5,0,0,0,0,1Z"/><path fill="#666667" d="M17.505,19h-9a.5.5,0,0,0,0,1h9a.5.5,0,0,0,0-1Z"/><path fill="#666667" d="M22.017,10h-20a1,1,0,0,0-1,1V23a1,1,0,0,0,1,1h20a1,1,0,0,0,1-1V11A1,1,0,0,0,22.017,10Zm0,13.5V23h-20V11h20V23h0Z"/><rect width="2" height="2" x="3.999" y="16.008" fill="#666667" rx=".5" ry=".5"/><rect width="2" height="2" x="3.999" y="19.008" fill="#666667" rx=".5" ry=".5"/></svg>