<svg xmlns="http://www.w3.org/2000/svg" id="Layer_1" data-name="Layer 1" viewBox="0 0 24 24"><defs><style>.cls-1{fill:#4a4a4a}.cls-2{fill:#fff}.cls-3{fill:none;stroke:#4a4a4a;stroke-miterlimit:10;stroke-width:.25px}</style></defs><title>NotificationList</title><path d="M23.5.5v23H.5V.5h23m.24-.5H.26A.26.26,0,0,0,0,.26V23.74A.26.26,0,0,0,.26,24H23.74a.26.26,0,0,0,.26-.26V.26A.26.26,0,0,0,23.74,0Z" class="cls-1"/><rect width="17.5" height="4.5" x="5.25" y="2.25" class="cls-2" rx=".3" ry=".3"/><path d="M22.45,2.5a.05.05,0,0,1,.05.05V6.45a.05.05,0,0,1-.05.05H5.55a.05.05,0,0,1-.05-.05V2.55a.05.05,0,0,1,.05-.05H22.45m0-.5H5.55A.55.55,0,0,0,5,2.55V6.45A.55.55,0,0,0,5.55,7H22.45A.55.55,0,0,0,23,6.45V2.55A.55.55,0,0,0,22.45,2Z" class="cls-1"/><rect width="17.5" height="5.5" x="5.25" y="8.25" class="cls-2" rx=".3" ry=".3"/><path d="M22.45,8.5a.05.05,0,0,1,.05.05v4.89a.05.05,0,0,1-.05.05H5.55a.05.05,0,0,1-.05-.05V8.55a.05.05,0,0,1,.05-.05H22.45m0-.5H5.55A.55.55,0,0,0,5,8.55v4.89a.55.55,0,0,0,.55.55H22.45a.55.55,0,0,0,.55-.55V8.55A.55.55,0,0,0,22.45,8Z" class="cls-1"/><rect width="17.5" height="4.5" x="5.25" y="15.25" class="cls-2" rx=".3" ry=".3"/><path d="M22.45,15.5a.05.05,0,0,1,.05.05v3.89a.05.05,0,0,1-.05.05H5.55a.05.05,0,0,1-.05-.05V15.55a.05.05,0,0,1,.05-.05H22.45m0-.5H5.55a.55.55,0,0,0-.55.55v3.89a.55.55,0,0,0,.55.55H22.45a.55.55,0,0,0,.55-.55V15.55a.55.55,0,0,0-.55-.55Z" class="cls-1"/><line x1="6.5" x2="16.5" y1="3.5" y2="3.5" class="cls-3"/><line x1="6.5" x2="18" y1="5" y2="5" class="cls-3"/><line x1="6.5" x2="20" y1="4" y2="4" class="cls-3"/><line x1="6.5" x2="16.5" y1="5.5" y2="5.5" class="cls-3"/><line x1="9.5" x2="19.5" y1="9.5" y2="9.5" class="cls-3"/><line x1="9.5" x2="20" y1="10" y2="10" class="cls-3"/><line x1="9.5" x2="21.5" y1="11" y2="11" class="cls-3"/><line x1="9.5" x2="20" y1="12" y2="12" class="cls-3"/><rect width="2" height="2" x="6.5" y="9.5" class="cls-3"/><line x1="6.5" x2="16.5" y1="16.5" y2="16.5" class="cls-3"/><line x1="6.5" x2="17" y1="17" y2="17" class="cls-3"/><line x1="6.5" x2="18.5" y1="18" y2="18" class="cls-3"/><polygon points="20.12 18.88 20.13 18.12 21.88 18.13 21.88 18.88 20.12 18.88" class="cls-2"/><path d="M21.75,18.25v.5h-1.5v-.5h1.5m.13-.25H20.12a.12.12,0,0,0-.12.12v.75a.12.12,0,0,0,.12.12h1.75a.12.12,0,0,0,.12-.12v-.75a.12.12,0,0,0-.12-.12Z" class="cls-1"/></svg>