<svg xmlns="http://www.w3.org/2000/svg" xmlns:xlink="http://www.w3.org/1999/xlink" width="24" height="24" x="0" y="0" enable-background="new 0 0 24 24" version="1.1" viewBox="0 0 24 24" xml:space="preserve"><g id="Icons"><g><defs><rect id="SVGID_139_" width="24" height="24" y=".002"/></defs><clipPath id="SVGID_2_"><use overflow="visible" xlink:href="#SVGID_139_"/></clipPath><g clip-path="url(#SVGID_2_)"><path fill="none" d="M4,22.488c0,0.275,0.225,0.5,0.5,0.5h15c0.275,0,0.5-0.225,0.5-0.5v-7.5H4V22.488z M9.5,16.988h5 c0.276,0,0.5,0.224,0.5,0.5c0,0.276-0.224,0.5-0.5,0.5h-5c-0.276,0-0.5-0.224-0.5-0.5C9,17.212,9.224,16.988,9.5,16.988z"/><rect width="16" height="2" x="4" y="11.988" fill="none"/><rect width="2" height="7" x="8" y="1.988" fill="#4A4A4A"/><rect width="3" height="7" x="13" y="1.988" fill="#4A4A4A"/><rect width="1" height="7" x="11" y="1.988" fill="#4A4A4A"/><rect width="1" height="7" x="17" y="1.988" fill="#4A4A4A"/><rect width="1" height="7" x="6" y="1.988" fill="#4A4A4A"/><path fill="#4A4A4A" d="M20.5,10.988h-17c-0.276,0-0.5,0.224-0.5,0.5v11c0,0.827,0.673,1.5,1.5,1.5h15c0.827,0,1.5-0.673,1.5-1.5 v-11C21,11.212,20.776,10.988,20.5,10.988z M20,22.488c0,0.275-0.225,0.5-0.5,0.5h-15c-0.275,0-0.5-0.225-0.5-0.5v-7.5h16V22.488 z M20,13.988H4v-2h16V13.988z"/><path fill="#4A4A4A" d="M9.5,17.988h5c0.276,0,0.5-0.224,0.5-0.5c0-0.276-0.224-0.5-0.5-0.5h-5c-0.276,0-0.5,0.224-0.5,0.5 C9,17.765,9.224,17.988,9.5,17.988z"/></g></g></g></svg>