<svg xmlns="http://www.w3.org/2000/svg" xmlns:xlink="http://www.w3.org/1999/xlink" width="24" height="24" x="0" y="0" enable-background="new 0 0 24 24" version="1.1" viewBox="0 0 24 24" xml:space="preserve"><g id="Icons"><g><defs><rect id="SVGID_59_" width="24" height="24"/></defs><clipPath id="SVGID_2_"><use overflow="visible" xlink:href="#SVGID_59_"/></clipPath><path fill="none" d="M4,22.5C4,22.775,4.225,23,4.5,23h15c0.275,0,0.5-0.225,0.5-0.5V15H4V22.5z M9.5,17h5c0.276,0,0.5,0.224,0.5,0.5c0,0.276-0.224,0.5-0.5,0.5h-5C9.224,18,9,17.776,9,17.5C9,17.224,9.224,17,9.5,17z" clip-path="url(#SVGID_2_)"/><rect width="16" height="2" x="4" y="12" fill="none" clip-path="url(#SVGID_2_)"/><path fill="#4A4A4A" d="M20.5,11h-17C3.224,11,3,11.224,3,11.5v11C3,23.327,3.673,24,4.5,24h15 c0.827,0,1.5-0.673,1.5-1.5v-11C21,11.224,20.776,11,20.5,11z M20,22.5c0,0.275-0.225,0.5-0.5,0.5h-15C4.225,23,4,22.775,4,22.5 V15h16V22.5z M20,14H4v-2h16V14z" clip-path="url(#SVGID_2_)"/><path fill="#4A4A4A" d="M9.5,18h5c0.276,0,0.5-0.224,0.5-0.5c0-0.276-0.224-0.5-0.5-0.5h-5 C9.224,17,9,17.224,9,17.5C9,17.776,9.224,18,9.5,18z" clip-path="url(#SVGID_2_)"/><path fill="#4A4A4A" d="M12,1c2.206,0,4,1.794,4,4s-1.794,4-4,4S8,7.206,8,5S9.794,1,12,1 M12,0 C9.239,0,7,2.239,7,5s2.239,5,5,5c2.761,0,5-2.239,5-5S14.761,0,12,0L12,0z" clip-path="url(#SVGID_2_)"/><g clip-path="url(#SVGID_2_)"><path fill="#4A4A4A" d="M13.498,5.999h-1.996c-0.276,0-0.5-0.224-0.5-0.5V2.496c0-0.276,0.224-0.5,0.5-0.5s0.5,0.224,0.5,0.5 v2.503h1.496c0.276,0,0.5,0.224,0.5,0.5S13.774,5.999,13.498,5.999z"/></g></g></g></svg>