<svg xmlns="http://www.w3.org/2000/svg" id="Layer_1" data-name="Layer 1" viewBox="0 0 24 24"><defs><style>.cls-1,.cls-4,.cls-5{fill:#fff}.cls-2{fill:#4a4a4a}.cls-3{fill:none}.cls-3,.cls-4,.cls-5{stroke:#4a4a4a;stroke-miterlimit:10}.cls-3,.cls-4{stroke-width:.25px}.cls-5{stroke-width:.5px}</style></defs><title>PlanningCalendarLegend</title><rect width="23.5" height="23.5" x=".25" y=".25" class="cls-1" rx=".61" ry=".61"/><path d="M23.14.5a.36.36,0,0,1,.36.36V23.14a.36.36,0,0,1-.36.36H.86a.36.36,0,0,1-.36-.36V.86A.36.36,0,0,1,.86.5H23.14m0-.5H.86A.86.86,0,0,0,0,.86V23.14A.86.86,0,0,0,.86,24H23.14a.86.86,0,0,0,.86-.86V.86A.86.86,0,0,0,23.14,0Z" class="cls-2"/><path d="M3,6.88a1.38,1.38,0,1,1,1-.4A1.37,1.37,0,0,1,3,6.88Z" class="cls-1"/><path d="M3,4.25a1.25,1.25,0,1,1-.88.37A1.24,1.24,0,0,1,3,4.25M3,4a1.5,1.5,0,1,0,1.06.44A1.5,1.5,0,0,0,3,4Z" class="cls-2"/><line x2="24" y1="2" y2="2" class="cls-3"/><line x1="5.5" x2="5.5" y1="24" class="cls-3"/><rect width="5.75" height="2.75" x="7.13" y="4.13" class="cls-1" rx=".38" ry=".38"/><path d="M12.5,4.25a.25.25,0,0,1,.25.25v2a.25.25,0,0,1-.25.25h-5a.25.25,0,0,1-.25-.25v-2a.25.25,0,0,1,.25-.25h5m0-.25h-5a.5.5,0,0,0-.5.5v2a.5.5,0,0,0,.5.5h5a.5.5,0,0,0,.5-.5v-2a.5.5,0,0,0-.5-.5Z" class="cls-2"/><path d="M23.5,6.9H19a.46.46,0,0,1-.45-.47V4.57A.46.46,0,0,1,19,4.1H23.5" class="cls-4"/><path d="M3,11.88a1.38,1.38,0,1,1,1-.4A1.37,1.37,0,0,1,3,11.88Z" class="cls-1"/><path d="M3,9.25a1.25,1.25,0,1,1-.88.37A1.24,1.24,0,0,1,3,9.25M3,9a1.5,1.5,0,1,0,1.06.44A1.5,1.5,0,0,0,3,9Z" class="cls-2"/><rect width="5.75" height="2.75" x="11.13" y="9.13" class="cls-1" rx=".38" ry=".38"/><path d="M16.5,9.25a.25.25,0,0,1,.25.25v2a.25.25,0,0,1-.25.25h-5a.25.25,0,0,1-.25-.25v-2a.25.25,0,0,1,.25-.25h5m0-.25h-5a.5.5,0,0,0-.5.5v2a.5.5,0,0,0,.5.5h5a.5.5,0,0,0,.5-.5v-2a.5.5,0,0,0-.5-.5Z" class="cls-2"/><rect width="3.75" height="2.75" x="17.13" y="9.13" class="cls-1" rx=".38" ry=".38"/><path d="M20.5,9.25a.25.25,0,0,1,.25.25v2a.25.25,0,0,1-.25.25h-3a.25.25,0,0,1-.25-.25v-2a.25.25,0,0,1,.25-.25h3m0-.25h-3a.5.5,0,0,0-.5.5v2a.5.5,0,0,0,.5.5h3a.5.5,0,0,0,.5-.5v-2a.5.5,0,0,0-.5-.5Z" class="cls-2"/><rect width="3.75" height="2.75" x="9.13" y="14.13" class="cls-1" rx=".38" ry=".38"/><path d="M12.5,14.25a.25.25,0,0,1,.25.25v2a.25.25,0,0,1-.25.25h-3a.25.25,0,0,1-.25-.25v-2a.25.25,0,0,1,.25-.25h3m0-.25h-3a.5.5,0,0,0-.5.5v2a.5.5,0,0,0,.5.5h3a.5.5,0,0,0,.5-.5v-2a.5.5,0,0,0-.5-.5Z" class="cls-2"/><path d="M3,16.88a1.38,1.38,0,1,1,1-.4A1.37,1.37,0,0,1,3,16.88Z" class="cls-1"/><path d="M3,14.25a1.25,1.25,0,1,1-.88.37A1.24,1.24,0,0,1,3,14.25M3,14a1.5,1.5,0,1,0,1.06.44A1.5,1.5,0,0,0,3,14Z" class="cls-2"/><rect width="5.75" height="2.75" x="16.13" y="14.13" class="cls-1" rx=".38" ry=".38"/><path d="M21.5,14.25a.25.25,0,0,1,.25.25v2a.25.25,0,0,1-.25.25h-5a.25.25,0,0,1-.25-.25v-2a.25.25,0,0,1,.25-.25h5m0-.25h-5a.5.5,0,0,0-.5.5v2a.5.5,0,0,0,.5.5h5a.5.5,0,0,0,.5-.5v-2a.5.5,0,0,0-.5-.5Z" class="cls-2"/><path d="M3,21.88a1.38,1.38,0,1,1,1-.4A1.37,1.37,0,0,1,3,21.88Z" class="cls-1"/><path d="M3,19.25a1.25,1.25,0,1,1-.88.37A1.24,1.24,0,0,1,3,19.25M3,19a1.5,1.5,0,1,0,1.06.44A1.5,1.5,0,0,0,3,19Z" class="cls-2"/><rect width="5.75" height="2.75" x="14.13" y="19.13" class="cls-1" rx=".38" ry=".38"/><path d="M19.5,19.25a.25.25,0,0,1,.25.25v2a.25.25,0,0,1-.25.25h-5a.25.25,0,0,1-.25-.25v-2a.25.25,0,0,1,.25-.25h5m0-.25h-5a.5.5,0,0,0-.5.5v2a.5.5,0,0,0,.5.5h5a.5.5,0,0,0,.5-.5v-2a.5.5,0,0,0-.5-.5Z" class="cls-2"/><rect width="5.75" height="2.75" x="7.12" y="19.13" class="cls-1" rx=".38" ry=".38"/><path d="M12.5,19.25a.25.25,0,0,1,.25.25v2a.25.25,0,0,1-.25.25h-5a.25.25,0,0,1-.25-.25v-2a.25.25,0,0,1,.25-.25h5m0-.25h-5a.5.5,0,0,0-.5.5v2a.5.5,0,0,0,.5.5h5a.5.5,0,0,0,.5-.5v-2a.5.5,0,0,0-.5-.5Z" class="cls-2"/><rect width=".75" height=".75" x="17.13" y=".83" class="cls-1" rx=".13" ry=".13"/><path d="M17.75,1v.5h-.5V1h.5m0-.25h-.5A.25.25,0,0,0,17,1v.5a.25.25,0,0,0,.25.25h.5A.25.25,0,0,0,18,1.45V1A.25.25,0,0,0,17.75.7Z" class="cls-2"/><rect width="10.5" height="16.5" x="12.25" y="4.25" class="cls-1" rx=".25" ry=".25"/><path d="M22.5,4.5v16h-10V4.5h10m0-.5h-10a.5.5,0,0,0-.5.5v16a.5.5,0,0,0,.5.5h10a.5.5,0,0,0,.5-.5V4.5a.5.5,0,0,0-.5-.5Z" class="cls-2"/><line x1="15.24" x2="20.76" y1="7.65" y2="7.65" class="cls-3"/><line x1="15.24" x2="20.76" y1="10.65" y2="10.65" class="cls-3"/><line x1="15.24" x2="19.37" y1="12.15" y2="12.15" class="cls-3"/><line x1="15.24" x2="20.76" y1="15.65" y2="15.65" class="cls-3"/><line x1="15.24" x2="18.33" y1="17.15" y2="17.15" class="cls-3"/><line x1="15.24" x2="20.76" y1="18.65" y2="18.65" class="cls-3"/><line x1="15.24" x2="18.33" y1="14.15" y2="14.15" class="cls-3"/><rect width="2.41" height="2.41" x="15.86" y="3.39" class="cls-1" transform="translate(8.29 -10.75) rotate(45.15)"/><line x1="18.81" x2="17.31" y1="4.36" y2="2.85" class="cls-5"/><line x1="15.8" x2="17.49" y1="4.35" y2="2.66" class="cls-5"/><line x1="15.24" x2="18.33" y1="9.15" y2="9.15" class="cls-3"/><line x1="15.24" x2="19.37" y1="6.15" y2="6.15" class="cls-3"/><rect width=".75" height=".75" x="13.83" y="5.73" class="cls-1" rx=".13" ry=".13"/><path d="M14.45,5.85v.5H14v-.5h.5m0-.25H14a.25.25,0,0,0-.25.25v.5A.25.25,0,0,0,14,6.6h.5a.25.25,0,0,0,.25-.25v-.5a.25.25,0,0,0-.25-.25Z" class="cls-2"/><rect width=".75" height=".75" x="13.83" y="7.33" class="cls-1" rx=".13" ry=".13"/><path d="M14.45,7.45v.5H14v-.5h.5m0-.25H14a.25.25,0,0,0-.25.25v.5A.25.25,0,0,0,14,8.2h.5a.25.25,0,0,0,.25-.25v-.5a.25.25,0,0,0-.25-.25Z" class="cls-2"/><rect width=".75" height=".75" x="13.83" y="8.83" class="cls-1" rx=".13" ry=".13"/><path d="M14.45,8.95v.5H14v-.5h.5m0-.25H14a.25.25,0,0,0-.25.25v.5A.25.25,0,0,0,14,9.7h.5a.25.25,0,0,0,.25-.25v-.5a.25.25,0,0,0-.25-.25Z" class="cls-2"/><rect width=".75" height=".75" x="13.83" y="10.33" class="cls-1" rx=".13" ry=".13"/><path d="M14.45,10.45v.5H14v-.5h.5m0-.25H14a.25.25,0,0,0-.25.25v.5a.25.25,0,0,0,.25.25h.5a.25.25,0,0,0,.25-.25v-.5a.25.25,0,0,0-.25-.25Z" class="cls-2"/><rect width=".75" height=".75" x="13.83" y="11.83" class="cls-1" rx=".13" ry=".13"/><path d="M14.45,11.95v.5H14v-.5h.5m0-.25H14a.25.25,0,0,0-.25.25v.5a.25.25,0,0,0,.25.25h.5a.25.25,0,0,0,.25-.25v-.5a.25.25,0,0,0-.25-.25Z" class="cls-2"/><rect width=".75" height=".75" x="13.83" y="13.83" class="cls-1" rx=".13" ry=".13"/><path d="M14.45,13.95v.5H14v-.5h.5m0-.25H14a.25.25,0,0,0-.25.25v.5a.25.25,0,0,0,.25.25h.5a.25.25,0,0,0,.25-.25v-.5a.25.25,0,0,0-.25-.25Z" class="cls-2"/><rect width=".75" height=".75" x="13.83" y="15.33" class="cls-1" rx=".13" ry=".13"/><path d="M14.45,15.45V16H14v-.5h.5m0-.25H14a.25.25,0,0,0-.25.25V16a.25.25,0,0,0,.25.25h.5A.25.25,0,0,0,14.7,16v-.5a.25.25,0,0,0-.25-.25Z" class="cls-2"/><rect width=".75" height=".75" x="13.83" y="16.83" class="cls-1" rx=".13" ry=".13"/><path d="M14.45,17v.5H14V17h.5m0-.25H14a.25.25,0,0,0-.25.25v.5a.25.25,0,0,0,.25.25h.5a.25.25,0,0,0,.25-.25V17a.25.25,0,0,0-.25-.25Z" class="cls-2"/><rect width=".75" height=".75" x="13.83" y="18.28" class="cls-1" rx=".13" ry=".13"/><path d="M14.45,18.4v.5H14v-.5h.5m0-.25H14a.25.25,0,0,0-.25.25v.5a.25.25,0,0,0,.25.25h.5a.25.25,0,0,0,.25-.25v-.5a.25.25,0,0,0-.25-.25Z" class="cls-2"/><line x1="16.07" x2="13.93" y1="4.25" y2="4.25" class="cls-5"/></svg>