<svg xmlns="http://www.w3.org/2000/svg" id="Layer_1" data-name="Layer 1" viewBox="0 0 24 24"><defs><style>.cls-1{fill:#fff}.cls-2{fill:#4a4a4a}.cls-3{fill:none;stroke:#4a4a4a;stroke-miterlimit:10;stroke-width:.25px}</style></defs><title>QuickViewCard</title><polygon points="1.26 23.75 1.25 .26 21.74 .25 21.75 23.74 21.74 23.75 1.26 23.75" class="cls-1"/><path d="M21.5.5v23H1.5V.5h20m.24-.5H1.26A.26.26,0,0,0,1,.26V23.74a.26.26,0,0,0,.26.26H21.74a.26.26,0,0,0,.26-.26V.26A.26.26,0,0,0,21.74,0Z" class="cls-2"/><line x1="9.6" x2="16.12" y1="2.71" y2="2.71" class="cls-3"/><line x1="9.6" x2="18.32" y1="4.86" y2="4.86" class="cls-3"/><line x1="3.53" x2="19" y1="8.14" y2="8.14" class="cls-3"/><line x1="3.53" x2="15.09" y1="10.29" y2="10.29" class="cls-3"/><line x1="3.53" x2="19" y1="15.29" y2="15.29" class="cls-3"/><line x1="3.53" x2="12.2" y1="18.86" y2="18.86" class="cls-3"/><line x1="3.53" x2="19" y1="21" y2="21" class="cls-3"/><path d="M7.26,2.25v3.5H3.76V2.25h3.5M7.51,2h-4V6h4V2Z" class="cls-2"/><line x1="3.53" x2="12.2" y1="13.14" y2="13.14" class="cls-3"/></svg>