<svg xmlns="http://www.w3.org/2000/svg" id="Layer_1" data-name="Layer 1" viewBox="0 0 24 24"><defs><style>.cls-1,.cls-3{fill:#fff}.cls-2{fill:#4a4a4a}.cls-3,.cls-4{stroke:#4a4a4a;stroke-miterlimit:10}.cls-3{stroke-width:.5px}.cls-4{fill:none;stroke-width:.25px}</style></defs><title>QuickView</title><rect width="2.41" height="2.41" x="11" y="6.29" class="cls-1" transform="translate(-1.73 10.83) rotate(-45)"/><path d="M9.69,6.25a.06.06,0,0,1,.06.06V8.69a.06.06,0,0,1-.06.06H1.31a.06.06,0,0,1-.06-.06V6.31a.06.06,0,0,1,.06-.06H9.69m0-.25H1.31A.31.31,0,0,0,1,6.31V8.69A.31.31,0,0,0,1.31,9H9.69A.31.31,0,0,0,10,8.69V6.31A.31.31,0,0,0,9.69,6Z" class="cls-2"/><path d="M12,6V3.81a.35.35,0,0,1,.38-.31H22.62a.35.35,0,0,1,.38.31v16.7a.35.35,0,0,1-.38.31H12.35a.35.35,0,0,1-.38-.31V8.6" class="cls-3"/><line x1="17" x2="20.38" y1="5.5" y2="5.5" class="cls-4"/><line x1="17" x2="21.53" y1="7" y2="7" class="cls-4"/><line x1="13.5" x2="21.53" y1="10" y2="10" class="cls-4"/><line x1="13.5" x2="19.5" y1="11.5" y2="11.5" class="cls-4"/><line x1="13.5" x2="21.53" y1="15" y2="15" class="cls-4"/><line x1="13.5" x2="18" y1="17.5" y2="17.5" class="cls-4"/><line x1="13.5" x2="21.53" y1="19" y2="19" class="cls-4"/><path d="M15.75,5.25v2h-2v-2h2M16,5H13.5V7.5H16V5Z" class="cls-2"/><line x1="13.5" x2="18" y1="13.5" y2="13.5" class="cls-4"/><line x1="11.96" x2="10.46" y1="5.76" y2="7.27" class="cls-3"/><line x1="11.96" x2="10.27" y1="8.77" y2="7.08" class="cls-3"/></svg>