<svg xmlns="http://www.w3.org/2000/svg" id="Layer_1" data-name="Layer 1" viewBox="0 0 24 24"><defs><style>.cls-1{fill:#4a4a4a}.cls-2,.cls-3{fill:none;stroke:#4a4a4a;stroke-miterlimit:10}.cls-2{stroke-width:.5px}.cls-3{stroke-width:.25px}</style></defs><title>SplitApp</title><path d="M23.5.5v23H.5V.5h23m.24-.5H.26A.26.26,0,0,0,0,.26V23.74A.26.26,0,0,0,.26,24H23.74a.26.26,0,0,0,.26-.26V.26A.26.26,0,0,0,23.74,0Z" class="cls-1"/><line x1="8.5" x2="8.5" y1=".5" y2="23.5" class="cls-2"/><line x1=".5" x2="8.5" y1="3.5" y2="3.5" class="cls-3"/><line x2="8.44" y1="7" y2="7" class="cls-3"/><line x1=".5" x2="8.5" y1="10.5" y2="10.5" class="cls-3"/><line x2="8.44" y1="14" y2="14" class="cls-3"/><line x1=".5" x2="8.5" y1="17.5" y2="17.5" class="cls-3"/></svg>