<svg xmlns="http://www.w3.org/2000/svg" xmlns:xlink="http://www.w3.org/1999/xlink" width="24" height="24" x="0" y="0" enable-background="new 0 0 24 24" version="1.1" viewBox="0 0 24 24" xml:space="preserve"><g id="Icons"><g><defs><rect id="SVGID_7_" width="24" height="24" y="-.012"/></defs><clipPath id="SVGID_2_"><use overflow="visible" xlink:href="#SVGID_7_"/></clipPath><path fill="#4A4A4A" d="M17.995,7.999c2.206,0,4,1.795,4,4c0,2.206-1.795,4-4,4H6.005 c-2.206,0-4-1.795-4-4s1.795-4,4-4H17.995 M17.995,6.999H6.005c-2.75,0-5,2.25-5,5v0c0,2.75,2.25,5,5,5h11.991c2.75,0,5-2.25,5-5 v0C22.996,9.25,20.745,6.999,17.995,6.999L17.995,6.999z" clip-path="url(#SVGID_2_)"/><circle cx="17.991" cy="11.994" r="2.994" fill="#4A4A4A" clip-path="url(#SVGID_2_)"/></g></g></svg>