<svg xmlns="http://www.w3.org/2000/svg" xmlns:xlink="http://www.w3.org/1999/xlink" width="24" height="24" x="0" y="0" enable-background="new 0 0 24 24" version="1.1" viewBox="0 0 24 24" xml:space="preserve"><g id="Icons"><g><defs><rect id="SVGID_131_" width="24" height="24"/></defs><clipPath id="SVGID_2_"><use overflow="visible" xlink:href="#SVGID_131_"/></clipPath><g clip-path="url(#SVGID_2_)"><rect width="7" height="4" x="1" y="7.002" fill="none"/><rect width="6" height="3" x="9" y="16.002" fill="none"/><rect width="7" height="3" x="1" y="12.002" fill="none"/><rect width="6" height="3" x="9" y="20.002" fill="none"/><path fill="none" d="M1,22.502c0,0.275,0.225,0.5,0.5,0.5H8v-3H1V22.502z"/><rect width="7" height="3" x="1" y="16.002" fill="none"/><rect width="6" height="3" x="9" y="12.002" fill="none"/><path fill="none" d="M22.5,1.002h-21c-0.275,0-0.5,0.225-0.5,0.5v4.5h22v-4.5C23,1.227,22.775,1.002,22.5,1.002z"/><rect width="7" height="4" x="16" y="7.002" fill="none"/><rect width="7" height="3" x="16" y="12.002" fill="none"/><rect width="6" height="4" x="9" y="7.002" fill="none"/><path fill="none" d="M16,23.002h6.5c0.275,0,0.5-0.225,0.5-0.5v-2.5h-7V23.002z"/><rect width="7" height="3" x="16" y="16.002" fill="none"/><path fill="#4A4A4A" d="M22.5,0.002h-21c-0.827,0-1.5,0.673-1.5,1.5v21c0,0.827,0.673,1.5,1.5,1.5h21c0.827,0,1.5-0.673,1.5-1.5 v-21C24,0.675,23.327,0.002,22.5,0.002z M8,23.002H1.5c-0.275,0-0.5-0.225-0.5-0.5v-2.5h7V23.002z M8,19.002H1v-3h7V19.002z M8,15.002H1v-3h7V15.002z M8,11.002H1v-4h7V11.002z M15,23.002H9v-3h6V23.002z M15,19.002H9v-3h6V19.002z M15,15.002H9v-3h6 V15.002z M15,11.002H9v-4h6V11.002z M23,22.502c0,0.275-0.225,0.5-0.5,0.5H16v-3h7V22.502z M23,19.002h-7v-3h7V19.002z M23,15.002h-7v-3h7V15.002z M23,11.002h-7v-4h7V11.002z M23,6.002H1v-4.5c0-0.275,0.225-0.5,0.5-0.5h21 c0.275,0,0.5,0.225,0.5,0.5V6.002z"/></g></g></g></svg>