<svg xmlns="http://www.w3.org/2000/svg" xmlns:xlink="http://www.w3.org/1999/xlink" width="24" height="24" x="0" y="0" enable-background="new 0 0 24 24" version="1.1" viewBox="0 0 24 24" xml:space="preserve"><g id="Icons"><g><defs><rect id="SVGID_65_" width="24" height="24"/></defs><clipPath id="SVGID_2_"><use overflow="visible" xlink:href="#SVGID_65_"/></clipPath><path fill="#4A4A4A" d="M16.5,12H13V6.5C13,6.224,12.776,6,12.5,6C12.224,6,12,6.224,12,6.5v6 c0,0.276,0.224,0.5,0.5,0.5h4c0.276,0,0.5-0.224,0.5-0.5C17,12.224,16.776,12,16.5,12z" clip-path="url(#SVGID_2_)"/><path fill="#4A4A4A" d="M12.499,4c4.687,0,8.5,3.813,8.5,8.5s-3.813,8.5-8.5,8.5s-8.5-3.813-8.5-8.5 S7.812,4,12.499,4 M12.499,3c-5.247,0-9.5,4.253-9.5,9.5c0,5.247,4.253,9.5,9.5,9.5s9.5-4.253,9.5-9.5 C21.999,7.254,17.746,3,12.499,3L12.499,3z" clip-path="url(#SVGID_2_)"/></g></g></svg>