<svg xmlns="http://www.w3.org/2000/svg" xmlns:xlink="http://www.w3.org/1999/xlink" width="24" height="24" x="0" y="0" enable-background="new 0 0 24 24" version="1.1" viewBox="0 0 24 24" xml:space="preserve"><g id="Icons"><g><defs><rect id="SVGID_35_" width="24" height="24" x="0" y="0"/></defs><clipPath id="SVGID_2_"><use overflow="visible" xlink:href="#SVGID_35_"/></clipPath><g clip-path="url(#SVGID_2_)"><path fill="#4A4A4A" d="M22.006,11.5c0,0.276-0.224,0.5-0.5,0.5h-18c-0.276,0-0.5-0.224-0.5-0.5s0.224-0.5,0.5-0.5h18 C21.782,11,22.006,11.224,22.006,11.5z"/></g><g clip-path="url(#SVGID_2_)"><path fill="#4A4A4A" d="M17.008,15.39v6.223c0,0.766-0.623,1.389-1.389,1.389H9.396c-0.766,0-1.389-0.623-1.389-1.389V15.39 c0-0.766,0.623-1.389,1.389-1.389h6.223C16.385,14.001,17.008,14.624,17.008,15.39z M9.008,21.612 c0,0.214,0.174,0.389,0.389,0.389h6.223c0.214,0,0.389-0.175,0.389-0.389V15.39c0-0.214-0.175-0.389-0.389-0.389H9.396 c-0.214,0-0.389,0.175-0.389,0.389V21.612z"/></g><g clip-path="url(#SVGID_2_)"><path fill="#4A4A4A" d="M17.006,1.388v6.222c0,0.766-0.623,1.389-1.389,1.389H9.395c-0.766,0-1.389-0.623-1.389-1.389V1.388 c0-0.767,0.623-1.39,1.389-1.39l6.223,0C16.383-0.002,17.006,0.621,17.006,1.388z M9.006,7.609c0,0.214,0.174,0.389,0.389,0.389 h6.223c0.214,0,0.389-0.175,0.389-0.389V1.388c0-0.215-0.175-0.39-0.389-0.39H9.395c-0.214,0-0.389,0.175-0.389,0.39V7.609z"/></g></g></g></svg>