<svg xmlns="http://www.w3.org/2000/svg" xmlns:xlink="http://www.w3.org/1999/xlink" width="24" height="24" x="0" y="0" enable-background="new 0 0 24 24" version="1.1" viewBox="0 0 24 24" xml:space="preserve"><g id="Icons"><g><defs><rect id="SVGID_101_" width="24" height="24"/></defs><clipPath id="SVGID_2_"><use overflow="visible" xlink:href="#SVGID_101_"/></clipPath><g clip-path="url(#SVGID_2_)"><path fill="none" d="M1,22.5C1,22.775,1.224,23,1.5,23H6V9H1V22.5z"/><rect width="5" height="14" x="7" y="9" fill="none"/><path fill="none" d="M22.5,1h-21C1.224,1,1,1.224,1,1.5V8h22V1.5C23,1.224,22.776,1,22.5,1z"/><path fill="none" d="M13,23h9.5c0.276,0,0.5-0.225,0.5-0.5V9H13V23z"/><path fill="#4A4A4A" d="M22.5,0h-21C0.671,0,0,0.671,0,1.5v21C0,23.328,0.671,24,1.5,24h21c0.828,0,1.5-0.672,1.5-1.5v-21 C24,0.671,23.328,0,22.5,0z M6,23H1.5C1.224,23,1,22.775,1,22.5V9h5V23z M12,23H7V9h5V23z M23,22.5c0,0.275-0.224,0.5-0.5,0.5H13 V9h10V22.5z M23,8H1V1.5C1,1.224,1.224,1,1.5,1h21C22.776,1,23,1.224,23,1.5V8z"/></g></g></g></svg>